<svg width="41" height="40" viewBox="0 0 41 40" fill="none" xmlns="http://www.w3.org/2000/svg">
<g opacity="0.75">
<path opacity="0.5" fill-rule="evenodd" clip-rule="evenodd" d="M0.121394 19.9996L0.242787 39.9993H20.1221H40.0015L39.8801 19.9996L39.7587 0H19.8793H0L0.121394 19.9996ZM17.7668 13.3718L17.8349 17.8291H19.9876H22.1402L22.1542 13.3718L22.1679 8.91456L24.3637 8.87162L26.5594 8.82852L26.573 11.0809L26.5867 13.3331H28.8212H31.0557L31.0421 11.0851L31.0284 8.83705H33.1859H35.3433L35.4242 22.1701L35.5052 35.5032H31.1132H26.7213L26.7081 33.3327L26.6949 31.1622H24.4604H22.2259L22.2391 33.3327L22.2523 35.5032H13.4684H4.6845L4.61062 23.3329L4.53675 11.1626H6.6942H8.85165L8.85824 12.2478L8.86482 13.3331H11.0993H13.3338L13.3202 11.0809L13.3065 8.82852L15.5027 8.87162L17.6989 8.91456L17.7668 13.3718ZM13.4011 24.414L13.4148 26.6662H11.1761H8.93728L8.99353 28.8754L9.04962 31.0847L11.2459 31.1276L13.4421 31.1707L13.4284 28.9184L13.4148 26.6662H15.6534H17.8922L17.836 24.4569L17.7799 22.2476L15.5836 22.2047L13.3874 22.1616L13.4011 24.414ZM26.654 24.414L26.6676 26.6662H28.9063H31.1451L31.0889 24.4569L31.0328 22.2476L28.8365 22.2047L26.6403 22.1616L26.654 24.414Z" fill="#FFDD2A"/>
</g>
</svg>
