<svg width="90" height="90" viewBox="0 0 90 90" fill="none" xmlns="http://www.w3.org/2000/svg">
<path fill-rule="evenodd" clip-rule="evenodd" d="M25.7383 12.2215C23.3836 12.858 19.7583 14.0482 17.6823 14.8663L13.9075 16.3544L11.5767 20.0523C3.43116 32.9752 -0.806022 49.1748 0.127298 63.8228L0.393593 68.0016L3.861 70.2397C11.5292 75.1882 22.6194 79.9923 23.4196 78.7121C28.0832 71.2537 28.0494 72.0415 23.7925 70.0563C20.2733 68.4147 19.7553 67.7453 21.2704 66.7981C22.0282 66.3245 22.6211 66.4265 25.4447 67.516C38.3146 72.4838 51.6936 72.4838 64.5636 67.516C67.3871 66.4265 67.98 66.3245 68.7378 66.7981C70.2628 67.7517 69.7302 68.4173 66.0158 70.202L62.4097 71.9339L63.5866 73.932C65.621 77.386 66.8267 79.1343 67.1786 79.1398C69.3321 79.1733 80.7143 73.7931 86.315 70.094L89.6202 67.9111L89.8852 63.8759C90.4268 55.6204 89.0234 45.0011 86.2808 36.5986C84.1453 30.0565 77.7743 17.7233 75.8811 16.4658C73.7987 15.0828 60.8782 11.0021 58.5736 11C57.7927 10.9991 57.3612 11.4916 56.5083 13.356L55.4303 15.7132L53.6425 15.4132C51.2441 15.0103 40.0318 14.9915 37.0628 15.3854L34.6871 15.7004L33.5354 13.3495C32.1586 10.5388 32.0318 10.5208 25.7383 12.2215ZM33.6698 40.2502C39.605 43.2542 39.897 52.8328 34.1648 56.4724C26.9414 61.0579 18.8403 52.4085 22.6849 44.2147C24.8346 39.633 29.2803 38.0284 33.6698 40.2502ZM63.8238 40.2609C69.8034 43.6511 69.8034 53.3501 63.8238 56.7403C57.9263 60.0842 50.923 54.527 51.834 47.226C52.6119 40.9934 58.7881 37.4056 63.8238 40.2609Z" fill="#5865F2"/>
</svg>
