<svg width="90" height="76" viewBox="0 0 90 76" fill="none" xmlns="http://www.w3.org/2000/svg">
<path fill-rule="evenodd" clip-rule="evenodd" d="M44.0959 15.8368C21.5976 24.5377 2.7114 31.9525 2.12681 32.3142C0.920134 33.0611 0 34.2785 0 35.1283C0 35.4656 0.317967 36.0222 0.76842 36.4731C1.38817 37.0935 2.19294 37.4501 4.9306 38.3177C6.79713 38.909 11.7859 40.494 16.0168 41.8395L23.7089 44.2862L47.0865 29.4816C59.944 21.3391 70.9388 14.4284 71.5191 14.1242C72.8405 13.4314 74.181 13.466 74.2852 14.1955C74.3398 14.5779 70.1825 18.4453 54.876 32.2511C43.5913 42.4292 35.356 50.0256 35.2995 50.3087C35.1994 50.8094 33.9908 69.6203 33.9974 70.5745C34.0018 71.2386 34.4769 71.249 35.8719 70.6154C36.5528 70.3062 38.1605 68.9267 40.4444 66.6917C42.3818 64.7959 44.8802 62.3575 45.9969 61.273L48.0268 59.3011L58.4248 67.0013C64.1435 71.2365 69.2861 74.9069 69.8526 75.1579C71.3909 75.8395 73.3852 75.6485 74.3548 74.7262C74.7532 74.3471 75.2759 73.6546 75.5162 73.187C75.7566 72.7194 76.6943 68.8638 77.6001 64.6189C89.0505 10.9608 90.0698 5.989 89.9966 4.15896C89.9167 2.16202 89.5623 1.45311 88.1702 0.50452C86.4945 -0.637022 88.483 -1.3288 44.0959 15.8368Z" fill="#29AAEC"/>
</svg>
