<svg width="90" height="90" viewBox="0 0 90 90" fill="none" xmlns="http://www.w3.org/2000/svg">
<path fill-rule="evenodd" clip-rule="evenodd" d="M15.4314 17.7386C15.4525 18.1448 15.4867 18.8907 15.5073 19.3962C16.1575 35.3626 22.0092 47.9549 31.3985 53.5924C32.871 54.4765 35.868 55.7339 36.5029 55.7339C36.5232 55.7339 36.5399 47.0188 36.5399 36.3669V17H43.9466H51.3533V28.0629V39.1258L51.6331 39.0853C59.9187 37.8875 68.6437 28.6405 71.9296 17.5744L72.1002 17H79.3742H86.6483L86.6059 17.2462C84.831 27.5648 77.4884 38.4949 68.4244 44.3107C67.9461 44.6176 67.5539 44.8835 67.5528 44.9015C67.5518 44.9196 67.9214 45.123 68.3743 45.3535C76.369 49.4239 83.8094 57.5297 87.6948 66.4021C88.5723 68.4058 90 72.4577 90 72.9443C90 72.9749 86.4078 72.9999 82.0172 72.9999L74.0344 72.9998L73.7829 72.2614C70.1571 61.6141 61.9111 54.3456 52.0282 53.0856L51.3533 52.9996V62.9998V73L49.7897 72.9999C20.0075 72.998 1.69045 53.2757 0.0664302 19.4619C0.030022 18.7036 0.000131384 17.8395 0.000131384 17.5416L0 17H7.69648H15.393L15.4314 17.7386Z" fill="#0177FF"/>
</svg>
