<svg width="40" height="40" viewBox="0 0 40 40" fill="none" xmlns="http://www.w3.org/2000/svg">
<g opacity="0.75">
<path d="M19.9999 24.1667C22.7583 24.1667 24.9833 21.925 24.9833 19.1667L24.9999 9.16667C24.9999 6.40001 22.7666 4.16667 19.9999 4.16667C17.2416 4.16667 14.9999 6.40001 14.9999 9.16667V19.1667C14.9999 21.925 17.2416 24.1667 19.9999 24.1667ZM31.6666 19.1667H28.8333C28.8333 24.1667 24.6083 27.6667 19.9999 27.6667C15.3999 27.6667 11.1666 24.1667 11.1666 19.1667H8.33325C8.33325 24.8583 12.8666 29.5583 18.3333 30.3667V35.8333H21.6666V30.3667C27.1333 29.5583 31.6666 24.8583 31.6666 19.1667Z" fill="#EE85FF"/>
</g>
</svg>
