<svg width="90" height="90" viewBox="0 0 90 90" fill="none" xmlns="http://www.w3.org/2000/svg">
<path fill-rule="evenodd" clip-rule="evenodd" d="M39.2611 14.0212C32.8965 14.0777 25.6948 14.3254 20.7729 14.6571C15.5278 15.0105 10.8885 15.5822 9.31841 16.0684C6.15279 17.0489 3.54576 19.4263 2.28283 22.4844C1.88959 23.4366 1.64528 24.4389 1.30247 26.5067C0.503418 31.3263 0.0692936 37.2859 0.00640145 44.2989C-0.0702002 52.8453 0.543795 60.7872 1.68072 65.9551C1.89127 66.912 2.03567 67.4028 2.29747 68.0513C2.94068 69.6444 3.87246 70.9842 5.16313 72.1718C6.54632 73.4444 8.46341 74.442 10.2133 74.7998C14.4087 75.6575 23.735 76.2713 36.4333 76.5254C42.8871 76.6546 52.5715 76.6309 58.1967 76.4722C65.3999 76.2689 70.1689 76.0097 74.3046 75.5966C77.5546 75.272 79.7614 74.8925 81.0022 74.4449C82.6184 73.8617 83.9489 73.0185 85.1688 71.8044C86.0297 70.9474 86.6518 70.1086 87.1804 69.0919C87.7387 68.018 88.0026 67.2436 88.2833 65.855C89.1703 61.4675 89.7069 56.2516 89.9548 49.6075C90.0151 47.991 90.0151 41.7921 89.9548 40.3085C89.704 34.1364 89.2425 29.6336 88.4611 25.736C88.0644 23.7574 87.8132 22.9173 87.3001 21.853C86.4084 20.0031 85.0346 18.444 83.2891 17.3009C82.7581 16.9531 81.7187 16.4265 81.1593 16.2219C80.5422 15.9961 79.5687 15.7104 79.0469 15.6018C74.0579 14.5638 56.5394 13.8678 39.2611 14.0212ZM48.0262 38.5717C54.4713 42.2507 59.7466 45.2757 59.7492 45.2938C59.7535 45.3246 36.3396 58.7103 36.2811 58.7105C36.2664 58.7105 36.2543 52.6742 36.2543 45.2965C36.2543 37.9187 36.2664 31.8824 36.2811 31.8824C36.2959 31.8825 41.5812 34.8926 48.0262 38.5717Z" fill="#FF0000"/>
</svg>
